<?xml version="1.0" encoding="UTF-8" standalone="no"?><!DOCTYPE svg PUBLIC "-//W3C//DTD SVG 1.1//EN" "http://www.w3.org/Graphics/SVG/1.1/DTD/svg11.dtd"><svg width="100%" height="100%" viewBox="0 0 11997 5097" version="1.1" xmlns="http://www.w3.org/2000/svg" xmlns:xlink="http://www.w3.org/1999/xlink" xml:space="preserve" xmlns:serif="http://www.serif.com/" style="fill-rule:evenodd;clip-rule:evenodd;stroke-linejoin:round;stroke-miterlimit:2;"><rect id="Prancheta3" x="0" y="0" width="11996.285" height="5096.718" style="fill:none;"/><g><g><path d="M2409.844,2731.347l-67.901,0c-40.044,0 -70.512,-12.674 -91.405,-38.023c-20.893,-25.349 -31.339,-53.757 -31.339,-85.225l0,-1880.185c0,-40.209 12.623,-71.239 37.868,-93.091c25.245,-21.852 53.537,-32.779 84.876,-32.779l73.124,0c34.821,0 63.548,11.363 86.182,34.09c22.634,22.727 34.821,53.32 36.562,91.78l0,283.208c0,34.964 12.187,64.683 36.562,89.158c24.375,24.475 53.972,36.712 88.793,36.712l1021.124,0c40.044,0 70.512,11.8 91.405,35.401c20.893,23.601 31.339,52.883 31.339,87.847l0,1347.859c0,34.964 -10.446,64.246 -31.339,87.847c-20.893,23.601 -51.361,35.401 -91.405,35.401l-67.901,0c-40.044,0 -71.383,-11.8 -94.017,-35.401c-22.634,-23.601 -33.95,-52.883 -33.95,-87.847l0,-1027.939c0,-33.216 -10.882,-62.061 -32.645,-86.536c-21.763,-24.475 -51.796,-36.712 -90.099,-36.712l-702.513,0c-40.044,0 -70.948,11.363 -92.711,34.09c-21.763,22.727 -32.645,52.446 -32.645,89.158l-2.612,1027.939l0,13.111c0,33.216 -12.187,59.876 -36.562,79.98c-24.375,20.104 -53.972,30.156 -88.793,30.156Z" style="fill-rule:nonzero;"/><path d="M5616.853,2608.099c0,82.165 -40.915,123.248 -122.744,123.248l-1342.348,0c-40.044,0 -70.512,-11.363 -91.405,-34.09c-20.893,-22.727 -31.339,-52.446 -31.339,-89.158l0,-1347.859c0,-40.209 11.317,-70.802 33.95,-91.78c22.634,-20.978 52.231,-31.468 88.793,-31.468l1337.124,0c40.044,0 71.383,11.8 94.017,35.401c22.634,23.601 33.95,52.883 33.95,87.847l0,1347.859Zm-318.612,-1027.939c0,-76.921 -40.915,-118.003 -122.744,-123.248l-707.736,0c-34.821,0 -63.983,11.363 -87.488,34.09c-23.504,22.727 -35.256,52.446 -35.256,89.158l0,705.397c0,34.964 11.317,64.683 33.95,89.158c22.634,24.475 53.972,36.712 94.017,36.712l702.513,0c34.821,0 63.983,-12.237 87.488,-36.712c23.504,-24.475 35.256,-54.194 35.256,-89.158l0,-705.397Z" style="fill-rule:nonzero;"/><path d="M5838.837,2534.675c0,-34.964 11.752,-64.246 35.256,-87.847c23.504,-23.601 52.667,-35.401 87.488,-35.401l73.124,0c34.821,0 63.983,11.8 87.488,35.401c23.504,23.601 35.256,52.883 35.256,87.847l0,73.424c0,34.964 -11.752,64.246 -35.256,87.847c-23.504,23.601 -52.667,35.401 -87.488,35.401l-73.124,0c-34.821,0 -63.983,-11.8 -87.488,-35.401c-23.504,-23.601 -35.256,-52.883 -35.256,-87.847l0,-73.424Z" style="fill-rule:nonzero;"/><path d="M6640.589,2699.879c-20.893,20.978 -51.361,31.468 -91.405,31.468l-47.008,0c-40.044,0 -70.512,-11.8 -91.405,-35.401c-20.893,-23.601 -31.339,-52.883 -31.339,-87.847l0,-1347.859c0,-33.216 11.317,-62.061 33.95,-86.536c22.634,-24.475 52.231,-36.712 88.793,-36.712l67.901,0c40.044,0 71.383,11.363 94.017,34.09c22.634,22.727 33.95,52.446 33.95,89.158l0,925.67l1005.455,-1009.583c24.375,-26.223 53.102,-39.334 86.182,-39.334c33.08,0 63.548,13.111 91.405,39.334l47.008,47.201c26.116,24.475 39.174,54.194 39.174,89.158c0,34.964 -12.187,64.683 -36.562,89.158l-446.579,443.168c-24.375,24.475 -36.562,53.32 -36.562,86.536c0,33.216 13.928,64.683 41.785,94.403l438.744,440.545c26.116,24.475 39.174,53.32 39.174,86.536c0,33.216 -12.187,62.935 -36.562,89.158l-49.62,49.824c-26.116,26.223 -56.149,39.334 -90.099,39.334c-33.95,0 -63.113,-12.237 -87.488,-36.712l-441.356,-448.412c-24.375,-26.223 -53.972,-39.334 -88.793,-39.334l-5.223,0c-33.08,0 -61.807,13.986 -86.182,41.957l-441.356,451.035Z" style="fill-rule:nonzero;"/><path d="M9777.086,2608.099c0,82.165 -40.915,123.248 -122.744,123.248l-1342.348,0c-40.044,0 -70.512,-11.363 -91.405,-34.09c-20.893,-22.727 -31.339,-52.446 -31.339,-89.158l0,-1347.859c0,-40.209 11.317,-70.802 33.95,-91.78c22.634,-20.978 52.231,-31.468 88.793,-31.468l1337.124,0c40.044,0 71.383,11.8 94.017,35.401c22.634,23.601 33.95,52.883 33.95,87.847l0,1347.859Zm-318.612,-1027.939c0,-76.921 -40.915,-118.003 -122.744,-123.248l-707.736,0c-34.821,0 -63.983,11.363 -87.488,34.09c-23.504,22.727 -35.256,52.446 -35.256,89.158l0,705.397c0,34.964 11.317,64.683 33.95,89.158c22.634,24.475 53.972,36.712 94.017,36.712l702.513,0c34.821,0 63.983,-12.237 87.488,-36.712c23.504,-24.475 35.256,-54.194 35.256,-89.158l0,-705.397Z" style="fill-rule:nonzero;"/><path d="M3277.288,3528.493c90.695,0 163.344,37.481 217.946,112.443l0,4.165l0,-108.279c0.954,0 1.909,-0.925 2.863,-2.776l95.698,0l0,660.779l-94.397,0c-0.925,0 -1.851,-0.463 -2.776,-1.388l0,-108.279c-49.975,76.813 -125.4,115.22 -226.275,115.22l-1.388,0c-89.77,0 -168.434,-35.63 -235.992,-106.891c-56.453,-68.484 -84.68,-143.446 -84.68,-224.887l0,-6.941c0,-87.919 31.003,-165.657 93.009,-233.216c65.708,-66.633 144.372,-99.95 235.992,-99.95Zm-231.828,333.166l0,4.165c0,77.739 31.003,141.595 93.009,191.57c38.869,30.54 81.903,45.81 129.102,45.81c100.875,0 170.747,-49.049 209.617,-147.148c9.255,-29.615 13.882,-58.767 13.882,-87.456l0,-13.882c0,-40.72 -12.494,-82.829 -37.481,-126.325c-43.497,-67.559 -101.801,-101.338 -174.912,-101.338c-97.173,0 -167.971,46.273 -212.393,138.819c-13.882,33.317 -20.823,65.245 -20.823,95.785Z" style="fill-rule:nonzero;"/><path d="M3811.742,3535.434l97.173,0l0,659.391l-97.173,0l0,-659.391Zm47.198,-356.765l5.553,0c16.658,0 32.391,7.404 47.198,22.211c12.956,14.807 19.435,29.615 19.435,44.422l0,4.165c0,19.435 -8.792,36.556 -26.376,51.363c-12.956,11.106 -26.838,16.658 -41.646,16.658l-4.165,0c-20.36,0 -37.944,-9.255 -52.751,-27.764c-9.255,-12.031 -13.882,-24.987 -13.882,-38.869l0,-5.553c0,-17.584 7.404,-33.779 22.211,-48.587c13.882,-12.031 28.689,-18.046 44.422,-18.046Z" style="fill-rule:nonzero;"/><path d="M4196.271,4056.006l1.388,0c20.36,0 37.944,7.866 52.751,23.599c11.106,13.882 16.658,28.227 16.658,43.034l0,4.165c0,19.435 -8.792,36.556 -26.376,51.363c-12.956,11.106 -27.764,16.658 -44.422,16.658c-17.584,0 -33.317,-6.478 -47.198,-19.435c-13.882,-14.807 -20.823,-30.54 -20.823,-47.198l0,-5.553c0,-17.584 7.404,-33.779 22.211,-48.587c13.882,-12.031 29.152,-18.046 45.81,-18.046Z" style="fill-rule:nonzero;"/><path d="M4761.265,3535.434l12.494,0c130.49,0 217.946,49.621 262.368,148.862c12.031,29.673 18.046,61.203 18.046,94.592l0,415.937l-97.173,0l0,-416.457c0,-68.484 -34.835,-114.294 -104.505,-137.431c-16.716,-5.553 -48.76,-8.329 -96.132,-8.329c-57.581,0 -100.767,12.06 -129.557,36.18c-34.372,22.269 -51.558,60.77 -51.558,115.502l0,410.536l-97.173,0l0,-648.285l94.397,0c0,0 0.925,0.456 2.776,1.367l0,63.878c49.975,-50.9 111.981,-76.35 186.018,-76.35Z" style="fill-rule:nonzero;"/><path d="M5548.369,3528.493c90.695,0 163.344,37.481 217.946,112.443l0,4.165l0,-108.279c0.954,0 1.909,-0.925 2.863,-2.776l95.698,0l0,660.779l-94.397,0c-0.925,0 -1.851,-0.463 -2.776,-1.388l0,-108.279c-49.975,76.813 -125.4,115.22 -226.275,115.22l-1.388,0c-89.77,0 -168.434,-35.63 -235.992,-106.891c-56.453,-68.484 -84.68,-143.446 -84.68,-224.887l0,-6.941c0,-87.919 31.003,-165.657 93.009,-233.216c65.708,-66.633 144.372,-99.95 235.992,-99.95Zm-231.828,333.166l0,4.165c0,77.739 31.003,141.595 93.009,191.57c38.869,30.54 81.903,45.81 129.102,45.81c100.875,0 170.747,-49.049 209.617,-147.148c9.255,-29.615 13.882,-58.767 13.882,-87.456l0,-13.882c0,-40.72 -12.494,-82.829 -37.481,-126.325c-43.497,-67.559 -101.801,-101.338 -174.912,-101.338c-97.173,0 -167.971,46.273 -212.393,138.819c-13.882,33.317 -20.823,65.245 -20.823,95.785Z" style="fill-rule:nonzero;"/><rect x="6075.881" y="3178.669" width="97.173" height="1016.156" style="fill-rule:nonzero;"/><path d="M6413.212,3535.434c0.925,0 11.568,24.062 31.928,72.186c41.646,99.95 104.577,249.874 188.794,449.774c0.925,-1.851 27.764,-63.394 80.515,-184.629c95.322,-224.887 143.446,-337.33 144.372,-337.33l105.503,0c-62.006,143.446 -185.092,430.339 -369.259,860.678c-7.404,16.658 -21.748,49.512 -43.034,98.562l-104.114,0l0,-1.388c22.211,-51.826 66.17,-155.477 131.878,-310.955c-45.348,-108.279 -137.431,-323.911 -276.25,-646.897l109.667,0Z" style="fill-rule:nonzero;"/><path d="M7122.577,3178.669l95.785,0l0,356.765l180.465,0l0,98.562l-180.465,0l0,380.364c0,19.435 5.09,37.018 15.27,52.751c10.18,12.956 23.137,22.211 38.869,27.764c7.404,1.851 14.345,2.776 20.823,2.776l2.776,0c17.584,0 41.646,-6.015 72.186,-18.046c1.851,-0.925 5.09,-2.314 9.717,-4.165c23.137,51.826 36.093,81.441 38.869,88.844c-6.478,3.702 -19.435,8.792 -38.869,15.27c-33.317,10.18 -59.229,15.27 -77.739,15.27l-11.106,0c-24.987,0 -50.9,-7.404 -77.739,-22.211c-37.018,-19.435 -62.469,-48.124 -76.35,-86.068c-8.329,-24.062 -12.494,-50.438 -12.494,-79.127l0,-373.423l-111.055,0l0,-98.562l111.055,0l0,-356.765Z" style="fill-rule:nonzero;"/><path d="M7573.739,3535.434l97.173,0l0,659.391l-97.173,0l0,-659.391Zm47.198,-356.765l5.553,0c16.658,0 32.391,7.404 47.198,22.211c12.956,14.807 19.435,29.615 19.435,44.422l0,4.165c0,19.435 -8.792,36.556 -26.376,51.363c-12.956,11.106 -26.838,16.658 -41.646,16.658l-4.165,0c-20.36,0 -37.944,-9.255 -52.751,-27.764c-9.255,-12.031 -13.882,-24.987 -13.882,-38.869l0,-5.553c0,-17.584 7.404,-33.779 22.211,-48.587c13.882,-12.031 28.689,-18.046 44.422,-18.046Z" style="fill-rule:nonzero;"/><path d="M8158.168,3529.881l18.046,0c68.484,0 133.729,25.45 195.735,76.35c30.54,29.615 50.438,52.751 59.692,69.41c-17.584,12.031 -44.422,30.077 -80.515,54.139c-28.689,-44.422 -69.41,-75.425 -122.161,-93.009c-18.509,-5.553 -37.481,-8.329 -56.916,-8.329l-11.106,0c-55.528,0 -106.891,23.599 -154.089,70.798c-41.646,49.049 -62.469,104.577 -62.469,166.583l0,2.776c0,65.708 24.987,124.012 74.962,174.912c44.422,40.72 93.934,61.08 148.536,61.08c66.633,0 124.474,-30.077 173.524,-90.232c1.851,-2.776 5.09,-7.404 9.717,-13.882c13.882,8.329 41.646,25.45 83.291,51.363c-40.72,62.931 -98.099,107.353 -172.136,133.266c-33.317,10.18 -64.782,15.27 -94.397,15.27c-81.441,0 -154.089,-29.615 -217.946,-88.844c-68.484,-70.335 -102.726,-151.313 -102.726,-242.933l0,-6.941c0,-91.621 34.242,-172.598 102.726,-242.933c64.782,-59.229 134.192,-88.844 208.229,-88.844Z" style="fill-rule:nonzero;"/><path d="M8793.959,3524.329l8.329,0c47.198,0 92.546,11.568 136.043,34.705c12.956,6.478 27.764,16.658 44.422,30.54c13.882,12.031 24.987,23.137 33.317,33.317c7.404,10.18 11.106,15.733 11.106,16.658c-42.571,24.062 -70.335,40.72 -83.291,49.975l-1.388,0c-8.329,-12.956 -20.823,-25.45 -37.481,-37.481c-29.615,-19.435 -65.708,-29.152 -108.279,-29.152c-48.124,0 -87.456,11.568 -117.996,34.705c-21.286,18.509 -31.928,38.869 -31.928,61.08c0,17.584 6.941,30.54 20.823,38.869c4.627,4.627 12.031,9.255 22.211,13.882c19.435,10.18 54.139,21.286 104.114,33.317c23.137,4.627 52.289,10.18 87.456,16.658c23.137,5.553 42.108,12.031 56.916,19.435c13.882,6.478 27.764,15.27 41.646,26.376c4.627,2.776 13.419,10.643 26.376,23.599c27.764,32.391 41.646,68.021 41.646,106.891l0,4.165c0,40.72 -15.27,79.59 -45.81,116.608c-12.031,12.956 -21.286,21.748 -27.764,26.376c-14.807,11.106 -28.227,19.897 -40.258,26.376c-44.422,20.36 -90.232,30.54 -137.431,30.54l-8.329,0c-50.9,0 -100.412,-12.494 -148.536,-37.481c-44.422,-25.913 -79.59,-61.543 -105.503,-106.891c0.925,-0.925 14.345,-8.329 40.258,-22.211c10.18,-5.553 24.987,-13.419 44.422,-23.599c21.286,37.018 52.289,63.394 93.009,79.127c25.913,9.255 53.214,13.882 81.903,13.882c40.72,0 76.813,-9.255 108.279,-27.764c6.478,-3.702 15.27,-10.643 26.376,-20.823c14.807,-17.584 22.211,-36.093 22.211,-55.528c0,-30.54 -18.972,-55.065 -56.916,-73.574c-10.18,-3.702 -24.062,-7.866 -41.646,-12.494c-74.037,-12.956 -131.878,-26.838 -173.524,-41.646c-85.142,-32.391 -127.714,-83.291 -127.714,-152.701l0,-2.776c0,-41.646 15.733,-80.515 47.198,-116.608c15.733,-14.807 26.376,-24.062 31.928,-27.764c20.36,-14.807 44.422,-25.913 72.186,-33.317c30.54,-10.18 61.08,-15.27 91.621,-15.27Z" style="fill-rule:nonzero;"/></g></g></svg>